<svg width="140" height="64" xmlns="http://www.w3.org/2000/svg" version="1.0" preserveAspectRatio="xMidYMid meet">
 <g>
  <title>Layer 1</title>
  <g stroke="null" id="svg_1">
   <path stroke="null" d="m26.68622,15.42223c-6.72267,1.36049 -11.80202,4.87901 -14.1923,9.75802c-1.34453,2.72099 -1.49393,4.31605 -1.49393,15.43457l0,12.38518l10.45748,0l10.45748,0l0,-11.0716c0,-6.70864 0.29879,-11.4 0.74696,-11.96296c1.12044,-1.31358 3.66012,-1.12593 4.48178,0.3284c0.44818,0.65679 0.74696,6.05185 0.74696,11.96296l0,10.74321l9.71052,0l9.71052,0l0.0747,-10.6963c0.0747,-5.8642 0.29879,-11.16543 0.59757,-11.82222c0.37348,-0.79753 1.12044,-1.21975 2.46498,-1.31358c3.13724,-0.23457 3.58542,1.54815 3.58542,13.32346l0,10.50864l10.084,0l10.084,0l0,-12.38518c0,-11.02469 -0.14939,-12.71358 -1.49393,-15.34074c-2.91316,-5.95802 -10.75627,-10.27407 -18.59938,-10.27407c-3.88421,0 -9.56113,1.50123 -13.44533,3.61235l-2.46498,1.36049l-2.31559,-1.36049c-1.26984,-0.75062 -3.66012,-1.78272 -5.30344,-2.29877c-3.28664,-1.0321 -10.83096,-1.54815 -13.89351,-0.89136z" id="svg_2"/>
   <path stroke="null" d="m87.19023,21.28642l0,4.97284l12.92246,0.09383l12.84776,0.14074l0,1.40741l0,1.40741l-12.84776,0.14074l-12.92246,0.09383l0,4.69136c0,2.58025 0.0747,4.69136 0.22409,4.69136c0.0747,0.04691 5.52753,0.14074 12.1008,0.28148c6.57327,0.14074 12.39959,0.3284 12.92246,0.42222c1.12044,0.23457 1.19514,2.20494 0,2.95556c-0.59757,0.37531 -4.63117,0.56296 -13.07185,0.56296l-12.1755,0l0,4.69136l0,4.69136l15.16335,0c14.1923,0 15.31274,-0.04691 18.44999,-1.0321c8.59007,-2.72099 10.98036,-10.08642 4.85526,-15.10617c-2.0915,-1.7358 -2.39028,-2.15802 -1.49393,-2.62716c1.9421,-0.98519 4.85526,-5.5358 4.85526,-7.41235c0,-2.62716 -3.36133,-6.42716 -7.32024,-8.25679l-3.28664,-1.45432l-15.61153,-0.14074l-15.61153,-0.14074l0,4.92593z" id="svg_3" fill="#ea5c10"/>
  </g>
 </g>

</svg>